<svg xmlns="http://www.w3.org/2000/svg" xmlns:xlink="http://www.w3.org/1999/xlink" viewBox="0 0 400 300" width="406" height="306" class="illustration styles_illustrationTablet__1DWOa"><defs><linearGradient id="linear-gradient" x1="227.59" y1="232.02" x2="247.63" y2="199.65" gradientUnits="userSpaceOnUse"><stop offset="0" stop-color="#fff" stop-opacity="0"></stop><stop offset="0.99" stop-color="#754c24"></stop></linearGradient><linearGradient id="linear-gradient-2" x1="164.71" y1="184.74" x2="183.34" y2="154.65" xlink:href="#linear-gradient"></linearGradient><linearGradient id="linear-gradient-3" x1="96.39" y1="233.55" x2="115.01" y2="203.46" xlink:href="#linear-gradient"></linearGradient></defs><title>PP</title><g style="isolation: isolate;"><g id="Layer_2" data-name="Layer 2"><path d="M194.28,287.7,14.56,181.48C8.84,178.27,3.93,173,9.51,169.53l180.37-104c2.71-1.68,6.82-2.78,9.57-1.18L388.11,173.89c5.72,3.32,6.75,12.6,1,15.93L218,287.53A23.9,23.9,0,0,1,194.28,287.7Z" fill="#3ac158"></path><path d="M256.16,197.92l-41.73,20.63,16.15,11.18,33.52-22C261,205.7,259.35,199.92,256.16,197.92Z" opacity="0.63" fill="url(#linear-gradient)" style="mix-blend-mode: multiply;"></path><path d="M191.76,153.34,154,173.05l16.15,11.18L193.72,167C190.56,164.91,195,155.34,191.76,153.34Z" opacity="0.63" fill="url(#linear-gradient-2)" style="mix-blend-mode: multiply;"></path><path d="M122.3,201.45,84.5,221.16l16.15,11.18L126.81,216C123.65,214,125.5,203.44,122.3,201.45Z" opacity="0.63" fill="url(#linear-gradient-3)" style="mix-blend-mode: multiply;"></path><polygon points="123.22 245.12 315.44 131.72 357.15 155.97 164.81 269.7 123.22 245.12" fill="#5dd874"></polygon><polygon points="33.85 192.88 225.75 79.67 267.78 103.72 75.44 217.46 33.85 192.88" fill="#5dd874"></polygon><path d="M305.28,107.92c.31,0,9.65,3.45,11.46,5.18a7.78,7.78,0,0,1,2.35,6.28c-.24,2-6.12,13.89-6.12,14.91s.47,4.87.63,6.44-.71,4.87-2,6.12-3.66,3.37-4,2.35.45-7,0-7.46-1.55,1.92-1.55,1.92c0,1.14.31,2.56-.24,2.87s-1.73-1.33-1.81-2.43,3.33-8.56,3.59-10.12,3-11.69,2.48-13-5.11-2.89-5.11-2.89" fill="#ffc2a4"></path><path d="M241.72,209.43v2.67s1,2.42,4.39,2.17,6.34-3,9.6-3.9,7-1.48,8.41-2.63,1.35-6.35,1.35-6.35" fill="#f34b43"></path><path d="M267.37,159.28s-8.9,34.21-8.74,35.9a3.46,3.46,0,0,0,4.37,2.61c2.07-.61,7.29-11,8.36-14.73s4.76-15.49,10.12-19S267.37,159.28,267.37,159.28Z" fill="#ffc2a4"></path><path d="M281.17,167.72a11,11,0,0,0,6.75,2.61c4.45.31,27.61-1.3,27.61-1.3s1.84-5.6,0-6.52-21.94-3.22-21.94-3.22" fill="#ffc2a4"></path><path d="M275.88,139.83s-.45,16.24,0,17.72,8.34,9.25,8.34,9.25L296,158.46l-5.45-19" fill="#d87b4c"></path><path d="M284.17,139.49c-1.36.68-19.88,16.92-19.54,18.4s3.18,4.54,5.68,6.25,6.93,3,8.52,4.2a4.82,4.82,0,0,0,2.61,1.25s18.29-18.06,18.85-21.69a37.23,37.23,0,0,0,0-8.4" fill="#e89263"></path><path d="M277.11,97.81s-5.58-1-7.38,1.48-4.41,15.45-4.07,15.45,8.18,2.84,8.18,2.84,1.93,9.09,2.16,11.24-.11,11-.11,11,8.63,3.07,15,3.75A17.56,17.56,0,0,0,302,140.85l-1-22,5.11.91s2.5-8.29.91-12.27c0,0-16.81-8.93-22.66-9.86" fill="#68e1fd"></path><path d="M271.89,96.3s-3.41-.6-4.26-3.06.26-5.19,3.15-5.36c0,0,.17-3.32,4.85-3.92s5.62,1.45,5.62,1.45,1.56-.77,3.5.94,2.62,7.75,1.69,10a12.82,12.82,0,0,1-3.32,4.12" fill="#0e0d0b"></path><path d="M269.72,92.53a46.46,46.46,0,0,0,3.38,8.55c1.07,1.78,4.1,4.45,6.41,4.28s4.1-6.41,4.1-6.41,1.8-2.73.87-3.67-2.81.51-2.81.51a7.2,7.2,0,0,1-3.32-3.26c-.94-2.19-4.19-1-6.13.45S269.72,92.53,269.72,92.53Z" fill="#ffc2a4"></path><path d="M242.18,210.66a3.15,3.15,0,0,1,1.56-4.56,29.82,29.82,0,0,0,7.09-3.72c2.49-2,4.28-3.17,5.34-4.46s.2-5.43,1.56-5.4,4.25,1.06,4.68,1.91-1.16,3.63-.28,3.49,3.09-2.45,3.09-2.45a10.64,10.64,0,0,0,0,3.64,9.33,9.33,0,0,1-.32,5.39c-.71,2-7.66,3.12-10.28,4.75s-7.52,4.18-10.49,3A3.86,3.86,0,0,1,242.18,210.66Z" fill="#110d01"></path><path d="M323.93,187.61l2.63.46s2.56-.57,2.89-4-1.87-6.76-2.19-10.12-.25-7.19-1.15-8.73-6-2.43-6-2.43" fill="#f34b43"></path><path d="M325.23,187.37a3.15,3.15,0,0,1-4.23-2.32,29.82,29.82,0,0,0-2.45-7.62c-1.57-2.8-2.39-4.76-3.48-6s-5.32-1.13-5.06-2.47,1.78-4,2.69-4.28,3.38,1.76,3.39.88-1.88-3.46-1.88-3.46a10.64,10.64,0,0,0,3.58.63,9.33,9.33,0,0,1,5.25,1.24c1.83,1,1.76,8.08,2.91,10.95s2.83,8.12,1.2,10.86A3.86,3.86,0,0,1,325.23,187.37Z" fill="#110d01"></path><path d="M265.66,114.73s-5.28,4.19-7,5.9-7,7.46-8.28,8-4.83,0-6.14,1.31-1.83,3.92-2,5.48.13,5,1,5.09,1.57-3.92,2-5.22,1.7-2.35,2-2-1.57,2-1.26,3,1.69.41,2.51-.26a31.34,31.34,0,0,0,3.17-2.45,25.38,25.38,0,0,1,2.66-2.66c.41-.2,11.6-5.11,15-8.13a38.09,38.09,0,0,0,5.73-6.59Z" fill="#ffc2a4"></path><polyline points="226.69 118.97 227.06 120.73 230.73 120.42 232.94 117.02 232.63 115.39 231.68 114.6 228.82 113.97" fill="#bfc7ca"></polyline><path d="M223.46,133.57a6.57,6.57,0,0,0,3.22.65c1.46-.22,4.55-2.11,5.26-3.79s2.49-5.8,2.76-6.56,3.25-3.6,3.58-4.89.08-2.17-1.69-2.92" fill="#ec4d3f"></path><path d="M205.73,112.86s19,6,21,6.12,2.86-4.42,2.86-4.42-6.84-5.54-11.68-7.06S210.4,105,210.4,105" fill="#f1a681"></path><path d="M226.82,120.19a3.47,3.47,0,0,0,3.23,0c1.41-1,1-5.41,1.64-5.59s4,.91,4.91,1.45a2,2,0,0,1,.86,2c0,.55-3.59,4.18-3.82,5.41s-2.54,7.27-4.36,8.59-5.59,2.5-6.63,1a3.79,3.79,0,0,1,.27-4.79A21.28,21.28,0,0,0,226.82,120.19Z" fill="#3b2b52"></path><path d="M192.52,151.77s.23-3.68.74-3.87a40.86,40.86,0,0,1,6.51,0c.31.15.15,2.57.15,2.57s-2.28,2.67-3.68,2.62A11.63,11.63,0,0,1,192.52,151.77Z" fill="#bfc7ca"></path><path d="M192.81,84.46s2,20.42,8.16,22.84,6.15-19.44,6.15-19.44L200,81.56" fill="#2d1d41"></path><path d="M202.49,122.35C203,120.53,213,106,213,106l-16.55,1s-2.57,11.5-2.7,16.7c-.11,4.58,0,21.18,0,25.07h0c1.73.31,4.13.81,5.73-.15,1.56-3.6,3.64-13.78,3.64-16.46C203.14,129.12,202,124.18,202.49,122.35Z" fill="#f1a681"></path><path d="M184.08,163.73l0,3.53a3.64,3.64,0,0,0,3,1.54c2.1,0,5.69-.77,6.63-1.83s2.82-4.76,3.78-5.56a16.3,16.3,0,0,0,2.9-2.94c.06-.36-.28-3-.28-3" fill="#ec4d3f"></path><path d="M192.52,151.77s-1.42,3.91-3,5.26-6,5.46-5.46,7.35,1.55,3,4,2.43,4.92-.94,6.54-4.18,4.59-4.92,5.19-5.94,0-6.74,0-6.74-2.16,2-3.44,2A36,36,0,0,1,192.52,151.77Z" fill="#3b2b52"></path><path d="M203.1,86s-7.5,20.91-6.66,22.21,9.72,4.72,13.51,3.33,8.3-14.71,7.9-17.58-2.07-9.72-2.07-9.72Z" fill="#3b2b52"></path><path d="M199.59,43.46a45.33,45.33,0,0,0-5.78.65c-2.58.51-4.4-.57-6.78,3s-8.77,17.63-7,20.64,6.12,6.76,6.12,6.76,1.64,4.29,3.74,5.39,5.18-2.47,5.24-3.56-1.77-2.56-1.77-2.56,1.19.55,1-.37-4-2.65-4-2.65l-3.92-7.31L192,55.27l13.94,5.94s6.79,6.67,9.13,5.81,2.77-2.13,2.77-2.13l1.34-2.81s5.94,6.94,5.75,8.49-3.74,14.07-5.21,14.8-3.2,1.1-4.29,2.19-3.2,2.1-2.37,3.47,1.28,2.92,2.28,3.11,3,1.55,4,.55S223,88,223,88s8.13-11.14,8.68-16.26S228,55.42,223,52.13a47.39,47.39,0,0,0-12.41-5.81c-3.19-.93-6.53-4.87-6.53-4.87" fill="#f1a681"></path><path d="M217.85,64.49c-2.84,2.36-5,.12-6-4s2.82-12.82,2.82-12.82-3.18-1.12-4-1.33-5.29,9.19-8.27,10.49-4.7-1.42-6.13-3.78c-1.11-1.83-.5-7-.17-9.28l-2.22.37c-.85,2.05-3.41,8.4-3.5,10.56-.12,2.6,2.48,11.11,3.19,13.47s-.12,14.54-.69,16.31,7.78,5.67,13.1,5A39.88,39.88,0,0,0,216.67,86s-1.42-6.74-2-8.75S217.85,64.49,217.85,64.49Z" fill="#68e1fd"></path><path d="M217.85,64.49l1.34-2.4,3,4.54,6.45-9.4s-5.76-10.06-21.11-12.53-18.85-.54-20.53,2.42-4.57,9.3-4.57,9.3l7,4L192,55.27s11.17,17,17.85,15.12S217.85,64.49,217.85,64.49Z" fill="#68e1fd"></path><path d="M208.57,27.36a5.16,5.16,0,0,0-5.2.27,6.08,6.08,0,0,0-4.37-.5,5.26,5.26,0,0,0-3.92,3.74h0a4.14,4.14,0,0,0-.59,7.33,5.21,5.21,0,0,0,2.89.65,3.69,3.69,0,0,0,3.44-2.62L201,36a3,3,0,0,0,1.1.17A3.89,3.89,0,0,0,203.3,36a3.94,3.94,0,0,0,1.38,0,3.15,3.15,0,0,0,2.8.43,5.4,5.4,0,0,0,3.43-3.82A4.65,4.65,0,0,0,208.57,27.36Z" fill="#f15a24"></path><path d="M196.86,38.32s-3.79.46-3.79-2.4,3.28-4.61,3.28-4.61a3.9,3.9,0,0,1,3-3.59,4.89,4.89,0,0,1,4.8,1.54s1-1.48,3.79-1.11,2.77,3.79,2.4,4.16a3.09,3.09,0,0,1,2,2.13,5.37,5.37,0,0,1-.92,3.33,4.91,4.91,0,0,1-.18,3.05c-.65,1.57-3.33,3.61-3.33,3.61" fill="#f15a24"></path><path d="M197.71,45.7c1.78,5,6.75,2.65,9.72-.24a4.18,4.18,0,0,0,.53-1s2.4-2.4,1.29-3.61-1.94.46-1.94.46-2-.83-2-2.13.37-2.13-1.76-2.31c-1.89-.16-5.91-2.81-7.48-.9C196.39,39.2,196.63,42.65,197.71,45.7Z" fill="#f1a681"></path><polyline points="82.36 174.06 100.78 172.56 93.92 165.91 72.28 166.09" fill="#fff"></polyline><path d="M78.15,166.1s-.22,4.39,1.51,5,6,.84,3.23,2.72-4.75.84-4.75.84a5.48,5.48,0,0,0-1.28,5.85,9.13,9.13,0,0,1-.36,6.75c-2.44,1.19-3.52.77-5-2.36s-3.23-18.39-2.59-18.81S78.15,166.1,78.15,166.1Z" fill="#fb9328"></path><path d="M74.72,187.86a3.87,3.87,0,0,1-3.82-.44c-1.65-1.41-1.9-8.47-3.41-11s-2.59-10.71,1.4-10.28" fill="#010005"></path><path d="M113,156.26s10,25.25-5.79,18.67-29.05-18.67-29.05-18.67Z" fill="#ff9e8b"></path><path d="M110.81,114.35s6.59,10.05,9.07,10.93a91.51,91.51,0,0,1,9.92,5.26c.68.44,6.77,2.41,7.67,5.25s1.8,7.64,0,8.52.12-4.15-2.31-6.12.05,2.19-2,2.41-3.38-5.25-4.74-5.69a123.29,123.29,0,0,1-14.66-5.53c-5.19-2.56-12.34-10.44-12.34-10.44" fill="#f8c8b2"></path><path d="M60.67,112c-1.31.64-10.49,7-12.9,9.74s-7,12.93-7.43,15.48-2,10.18,0,11.24,3.5,4,4.59,3-2.4-4.88-1.75-6.79,1.31,2.14,2.62,2.34-1.53-7.22-.87-8.07,9.62-13.57,15.74-16.54" fill="#f8c8b2"></path><path d="M92.81,149.88c1.55,1.44,14,19.87,18.61,32.65s9.62,19,9.62,19-3.09,12.41-5.37,9.77S104.49,195,96.28,178c0,0-13.61-7.64-20.95-17.34" fill="#f8c8b2"></path><path d="M99.61,134.21S117.25,158.91,116,161s-8.79,5.91-10.39,5.91-6.26-10.78-12.36-10.09S83,166.91,84.19,169c0,0-7.41-2.78-9.92-8.35s0-18.44,0-18.44" fill="#a03e24" stroke="#f2f2f2" stroke-miterlimit="10"></path><path d="M91.13,101.51c1.06.18,6.14-4.87,21.9,13.57l-5.79,9-7.63-5.22s-1.2,8.35,0,10.78,5.15,7.65,4.43,9.39-10.88,10.44-18.35,10.78S73.27,145,67.86,146c0,0,5.35-6.61,5.35-11.48s.72-13.57.72-13.57-9,1.52-12.19,4.41l-6.37-11.72S72.84,98.38,91.13,101.51Z" fill="#68e1fd"></path><path d="M110.61,180.71l.09,0c.26.63.5,1.26.72,1.87,4.65,12.79,9.62,19,9.62,19s-2.43,13.54-4.72,10.91c-2-2.29-10-14.29-16.86-27.95A67.31,67.31,0,0,0,110.61,180.71Z" fill="#fff"></path><path d="M121.32,216.9a12.86,12.86,0,0,1-6.6-8.1c-1.6-5.92.93-14.81,4.09-17.54s11.67-2.21,11.4,5.1" fill="#fb9328"></path><path d="M126.81,216a12.09,12.09,0,0,0,1.3-6.3c-.33-3.34,6.27-11.81,2-16.45-3.3-3.59-8.15-2.14-10.79,3.52s-2.87,18.47,2,20.14S126.81,216,126.81,216Z" fill="#010005"></path><path d="M78.85,89.15V89a5,5,0,0,1,.77-2.4c1.31-1.76,4.7-2.37,6.76-2.64a13.42,13.42,0,0,1,7.7,1.11c2.67,1.32,2.31,3.94,1.63,6.27-.49,1.69-1,3.38-1.47,5.07l-9.46,6.76s-4.52-2.19-5.16-3.95A22.49,22.49,0,0,1,78.85,89.15Z" fill="#ffcb27"></path><path d="M94.55,92.67c0,.68.47,12.62-5.69,13.08s-7.11-6.82-7.11-6.82-3.08-3.19-1.78-4a2,2,0,0,1,2.49.43S86,99.59,85.27,97s-.62-6.41,2.45-5.95,3.21,1.93,5,.78S94.6,91,94.55,92.67Z" fill="#f8cdbc"></path><ellipse cx="198.75" cy="223" rx="24.71" ry="6.01" fill="#3ac158"></ellipse><path d="M196.38,205.11l.22-.07-1.71-5.21a15.63,15.63,0,0,1,5.32,9.87l-.12.12A42.07,42.07,0,0,0,196.38,205.11Z" fill="#fff"></path><path d="M193.5,218.79l-.08-.11a20.61,20.61,0,0,0,4.78-1.13v1.66a2.44,2.44,0,0,0,.37-.42,16.22,16.22,0,0,1-9.65,7.92q-.17-1.44-.27-2.88Z" fill="#fff"></path><path d="M184.85,195.84a16.5,16.5,0,0,1,9.88,3.85l-6.41-1.93A27.94,27.94,0,0,0,184.85,195.84Z" fill="#fff"></path><path d="M173.78,200.94l-3.89,4.89-1.28.72a15.93,15.93,0,0,1,6.52-8.16,24.35,24.35,0,0,0-1.26,2.59Z" fill="#fff"></path><path d="M176.79,223.59a46.82,46.82,0,0,0,5.43-1.19l5.94,1.49q.1,1.48.28,3a16.76,16.76,0,0,1-11.18-.84l.31,0Z" fill="#fff"></path><path d="M185.66,200.94l.09.08q-3.82,1.12-7.57,2.42l0-.1-3.9-2.13a23.85,23.85,0,0,1,1.71-3.35,16.59,16.59,0,0,1,7.62-2,27.62,27.62,0,0,1,3.88,2Z" fill="#fff"></path><path d="M195.87,205.27a41.43,41.43,0,0,1,3.9,4.94l-.11.13-1.46,6.37V217a19.85,19.85,0,0,1-5.09,1.19l-2.94-4.19a44.79,44.79,0,0,0,1.7-7.56Z" fill="#fff"></path><path d="M176.58,210.86q2.83,2.65,5.88,5.06l-.66.22V222a44,44,0,0,1-5.16,1.11l-.19-.59-4.84-4.26a35.05,35.05,0,0,1-.37-6.06Z" fill="#fff"></path><path d="M178.07,204q4-1.4,8.07-2.59l5.23,5.08a44.08,44.08,0,0,1-1.57,7.07l0-.06L183,215.73q-3.23-2.54-6.22-5.34Z" fill="#fff"></path><path d="M170.77,211.52a35.48,35.48,0,0,0,.28,6.31h-2a15.38,15.38,0,0,1-.66-10.59l1-.59Z" fill="#fff"></path><path d="M194.86,199.73l0,.1-.17-.14Z" fill="#050505"></path><path d="M168.61,206.55q-.12.34-.22.69l1-.59,1.36,4.87a35.48,35.48,0,0,0,.28,6.31h-2a16.1,16.1,0,0,0,8.22,8.18l.31,0-.78-2.44a46.82,46.82,0,0,0,5.43-1.19l5.94,1.49q.1,1.48.28,3l.48-.13q-.17-1.44-.27-2.88l4.84-5-.08-.11a20.61,20.61,0,0,0,4.78-1.13v1.66a2.44,2.44,0,0,0,.37-.42,15.29,15.29,0,0,0,1.65-9.09l-.12.12a42.07,42.07,0,0,0-3.72-4.72l.22-.07-1.71-5.21-.17-.14-6.41-1.93a27.94,27.94,0,0,0-3.47-1.92l-.8,0h-.42a27.62,27.62,0,0,1,3.88,2l-1.84,3.12.09.08q-3.82,1.12-7.57,2.42l0-.1-3.9-2.13a23.85,23.85,0,0,1,1.71-3.35q-.45.25-.87.52a24.35,24.35,0,0,0-1.26,2.59l-.08,0-3.89,4.89Zm21.56,7.5a44.79,44.79,0,0,0,1.7-7.56l4-1.23a41.43,41.43,0,0,1,3.9,4.94l-.11.13-1.46,6.37V217a19.85,19.85,0,0,1-5.09,1.19ZM183,215.73q-3.23-2.54-6.22-5.34l1.28-6.4q4-1.4,8.07-2.59l5.23,5.08a44.08,44.08,0,0,1-1.57,7.07l0-.06Zm-11.77-3.52,5.34-1.35q2.83,2.65,5.88,5.06l-.66.22V222a44,44,0,0,1-5.16,1.11l-.19-.59-4.84-4.26A35.05,35.05,0,0,1,171.25,212.21Z" fill="#050505"></path></g></g></svg>