<svg xmlns="http://www.w3.org/2000/svg" xmlns:xlink="http://www.w3.org/1999/xlink" viewBox="0 0 400 300" width="406" height="306" class="illustration styles_illustrationTablet__1DWOa"><defs><linearGradient id="linear-gradient" x1="28.97" y1="198.44" x2="69.06" y2="172.16" gradientUnits="userSpaceOnUse"><stop offset="0" stop-color="#fff" stop-opacity="0"></stop><stop offset="0.99" stop-color="gray"></stop></linearGradient><linearGradient id="linear-gradient-2" x1="226.15" y1="229.25" x2="269.82" y2="200.62" xlink:href="#linear-gradient"></linearGradient><linearGradient id="linear-gradient-3" x1="1129.51" y1="234.82" x2="1102.87" y2="206.57" gradientTransform="matrix(-1, 0, 0, 1, 1282.61, 0)" gradientUnits="userSpaceOnUse"><stop offset="0" stop-color="#fff" stop-opacity="0"></stop><stop offset="1" stop-color="#9e005d"></stop></linearGradient></defs><title>PP</title><g style="isolation: isolate;"><g id="Layer_2" data-name="Layer 2"><path d="M194.28,288.83,14.56,182.61c-5.72-3.21-10.63-8.49-5.05-11.94l180.37-104c2.71-1.68,6.82-2.78,9.57-1.18L388.11,175c5.72,3.32,6.75,12.6,1,15.93L218,288.66A23.9,23.9,0,0,1,194.28,288.83Z" fill="#007f68"></path><path d="M48.42,196l33-18.76c-6.84-4.63-11.87-5.86-17.8-11.58L31.41,183.69C37.24,187.55,43,191.59,48.42,196Z" opacity="0.91" fill="url(#linear-gradient)" style="mix-blend-mode: multiply;"></path><path d="M247.34,226.53l36-20.44c-7.45-5-12.93-6.38-19.39-12.62l-35.11,19.7C235.16,217.39,241.4,221.78,247.34,226.53Z" opacity="0.91" fill="url(#linear-gradient-2)" style="mix-blend-mode: multiply;"></path><path d="M53.16,113.4a10.74,10.74,0,0,1,5.22,1,8.49,8.49,0,0,1,3.69,4.2c.8,1.69,1.16,4.1,2.83,5.19a4.91,4.91,0,0,1,1.65,1.44,4.31,4.31,0,0,1,.51,4c-.74,1.48-3.83,2.39-5.25,2.12" fill="#8fdb5e"></path><path d="M51.8,113.58a11.06,11.06,0,0,0-1.57.26,11,11,0,0,0-7.34,7.37,13.32,13.32,0,0,0-.07,6.29c.4,1.67,1.39,4.56,3.43,4.69,2.75.17,3.65-2.41,4.52-4.52s1.78-4.44,4-5.28a5.93,5.93,0,0,1,6.36,1.43Z" fill="#1e8c0e"></path><path d="M64.38,124.77c-1.66-2.15-3-4.5-4.65-6.69a19.92,19.92,0,0,0-3.23-3.91c-3.83-1.86-8.65-.15-11.47,3.1.39.12.93.14,1.23.25a10.9,10.9,0,0,1,4.38,3.1c1.69,1.87,3,4.17,4.51,6.16,2.43,3.23,5.66,5.89,9.83,4C67.65,129.51,65.56,126.29,64.38,124.77Z" fill="#8fdb5e"></path><path d="M77.89,97.08s8.62-.68,8.46,13-13,4.67-10.22-3.55" fill="#1e8c0e"></path><path d="M76.65,110.5c-.09-4.15,4.57-7.18,8.51-7.71-.62-2.39-3-6.22-7.8-6.09-5.9.15-10.33,6.15-11.33,13.22s4.34,11.55,4.34,11.55l2.85,2.43C78.47,121.84,76.52,114.29,76.65,110.5Z" fill="#8fdb5e"></path><path d="M100.14,120.27a18,18,0,0,0-2-7.41,8.16,8.16,0,0,0-5.61-4.34l-4.86,9.35s7.24-12.66,4.28-2.91,6.79,20.67,8.12,6.14C100.11,120.81,100.12,120.54,100.14,120.27Z" fill="#1e8c0e"></path><path d="M65.82,144.61s-6.49,4.22-4.69,14.1a54.23,54.23,0,0,0,2.88,10c1.26,3.21,2.18,7.36,5.42,9.18,3,1.69,7.69,2,10.73.14,2.78-1.7,3.78-5.56,4.8-8.43a52.35,52.35,0,0,0,2.49-10.9C90.52,134.83,65.82,144.61,65.82,144.61Z" fill="#68e1fd"></path><ellipse cx="74.57" cy="146.05" rx="9.47" ry="3.42" fill="#68e1fd"></ellipse><path d="M75.33,127.81c-1.32-3.19-3.79-5.87-4.57-9.29A12.16,12.16,0,0,1,75.6,106.1c.72-.52,0-1.74-.71-1.21-6.05,4.4-7.22,11.9-3.7,18.29,1.09,2,2.52,3.88,3.19,6.07.87,2.85-.1,4.91-1.44,7a8.11,8.11,0,0,0-2.1-5.74c-1.57-1.46-3.89-1.7-5.84-2.36-3.77-1.27-7.09-3.43-7.73-7.63-.14-.89-1.48-.51-1.35.37.52,3.44,2.78,5.89,5.82,7.45a40.54,40.54,0,0,0,5.62,2,6.54,6.54,0,0,1,3.7,3.62c.89,2.06.29,3.47-.22,5.47-.65,2.59-1.69,4.82.1,7.28.52.72,1.74,0,1.21-.71-2.84-3.91,1.7-7.64,3.22-11A8.65,8.65,0,0,0,75.33,127.81Z" fill="#1e8c0e"></path><path d="M92.79,119.23c-6-1.05-10.06,3.58-9.7,9.37a22,22,0,0,0,.8,4.29c.27,1,1,2.72.79,3.72a5.65,5.65,0,0,1-3.42,4c-2.6,1.23-4.27,2.7-5,5.55a.7.7,0,0,0,1.35.37c1.38-5.07,8.46-4.34,8.51-9.92,0-2.72-1.42-5.28-1.59-8-.29-4.77,2.82-8.92,7.93-8C93.3,120.74,93.68,119.39,92.79,119.23Z" fill="#1e8c0e"></path><path d="M98.14,112.85c-2.32-4.28-6.53-5.28-10.66-4a13.6,13.6,0,0,0-1.66.81c-10.39,7.7-3,25.07-1.41,24.94,5.3-.44,4.75-3.55,6.52-12.26a8.22,8.22,0,0,1,8.27-7A15.39,15.39,0,0,0,98.14,112.85Z" fill="#8fdb5e"></path><path d="M95.86,110A8.66,8.66,0,0,0,87,114.26c-3.8,6.35-2.92,13.75-2.42,20.76.06.89,1.47.9,1.4,0-.37-5.07-1.08-10.08.3-15.06.68-2.44,1.49-5.15,3.44-6.9a7.18,7.18,0,0,1,7.82-1.12l-.53-.72C96.63,110.83,96.24,110.43,95.86,110Z" fill="#1e8c0e"></path><polyline points="161.9 73.83 161.9 199.12 203.85 226.85 251.32 199.63 251.32 70.27" opacity="0.3"></polyline><polygon points="203.85 97.41 203.85 226.85 251.32 199.63 251.32 70.27 203.85 97.41" opacity="0.3"></polygon><polygon points="161.9 73.83 209.69 46.24 251.32 70.27 203.85 97.41 161.9 73.83" opacity="0.3"></polygon><path d="M162.58,201.18,207,224.13l-45.28,28.4h-1.18c-18.33-10.11-30.74-17.61-43.77-25.66C133.62,217.9,147,212.16,162.58,201.18Z" opacity="0.63" fill="url(#linear-gradient-3)" style="mix-blend-mode: multiply;"></path><polyline points="161.9 73.83 161.9 199.12 203.85 226.85 251.32 199.63 251.32 70.27" opacity="0.18"></polyline><polyline points="161.9 73.83 161.9 199.12 203.85 226.85 251.32 199.63 251.32 70.27" fill="#68e1fd"></polyline><polygon points="203.85 97.41 203.85 226.85 251.32 199.63 251.32 70.27 203.85 97.41" fill="#68e1fd"></polygon><polyline points="161.9 73.83 161.9 199.12 203.85 226.85 251.32 199.63 251.32 70.27" opacity="0.12"></polyline><polygon points="203.85 97.41 203.85 226.85 251.32 199.63 251.32 70.27 203.85 97.41" fill="#68e1fd"></polygon><polygon points="203.85 97.41 203.85 226.85 251.32 199.63 251.32 70.27 203.85 97.41" opacity="0.31"></polygon><polygon points="161.9 73.83 209.69 46.24 251.32 70.27 203.85 97.41 161.9 73.83" fill="#68e1fd"></polygon><polygon points="248.12 31.95 164.88 50.45 164.88 74.98 197.38 94.51 248.12 64.77 248.12 31.95" fill="#70bc0d"></polygon><polyline points="248.41 31.91 196.9 67.34 164.88 50.45 189.02 37.29" fill="#67a00d"></polyline><path d="M158.85,45.42l30.7,17.72a78.86,78.86,0,0,0,26.65-9.39c13.74-7.84,32.66-22.42,32.66-22.42L220.63,15,180.72,38.57S169.68,44,158.85,45.42Z" fill="#91d12c"></path><path d="M162.33,45.93l27.75,16a94.08,94.08,0,0,0,25.38-9.61C227.89,45.27,245,32.09,245,32.09L219.48,17.31,183.39,38.62A107.86,107.86,0,0,1,162.33,45.93Z" fill="none" stroke="#2e3192" stroke-miterlimit="10"></path><polygon points="196.9 67.34 196.9 94.51 248.12 64.77 248.86 31.34 196.9 67.34" fill="#618e0c"></polygon><path d="M199.65,33.15l19-11.8,20.76,11s-21.67,13.12-23.32,14S196.42,57.2,188.52,56.78l-18.09-10Z" fill="#8cc127"></path><ellipse cx="205.87" cy="41.74" rx="16.37" ry="7.89" fill="#c7e58f"></ellipse><path d="M164.88,58.21Q173,62.49,181,66.88t16.08,8.83l-.47,0,12.79-8.39L222.27,59l12.89-8.23q6.45-4.1,13-8.12-6.3,4.33-12.65,8.59l-12.72,8.48L210,68.16l-12.83,8.33-.23.15-.24-.13q-8-4.48-15.94-9.07T164.88,58.21Z" fill="#55823d"></path><path d="M164.88,62Q173,66.33,181,70.72t16.08,8.83l-.47,0,12.79-8.39,12.84-8.31,12.89-8.23q6.45-4.1,13-8.12-6.3,4.33-12.65,8.59l-12.72,8.48L210,72l-12.83,8.33-.23.15-.24-.13q-8-4.48-15.94-9.07T164.88,62Z" fill="#55823d"></path><path d="M165,67q8.11,4.29,16.16,8.68t16.08,8.83l-.47,0,12.79-8.39,12.84-8.31,12.89-8.23q6.45-4.1,13-8.12Q242,55.77,235.61,60l-12.72,8.48-12.78,8.4-12.83,8.33-.23.15-.24-.13q-8-4.48-15.94-9.07T165,67Z" fill="#55823d"></path><path d="M164.88,71.77Q173,76.06,181,80.45t16.08,8.83l-.47,0,12.79-8.39,12.84-8.31,12.89-8.23q6.45-4.1,13-8.12-6.3,4.33-12.65,8.59l-12.72,8.48L210,81.72l-12.83,8.33-.23.15-.24-.13q-8-4.48-15.94-9.07T164.88,71.77Z" fill="#55823d"></path><polygon points="184.12 36.56 216.2 53.76 216.2 83.48 228.28 76.29 228.28 45.76 196.9 29.02 184.12 36.56" fill="#dce5ca"></polygon><polygon points="216.2 53.76 228.28 45.76 228.28 76.29 216.2 83.48 216.2 53.76" fill="#c7d1b0"></polygon><path d="M209.35,39.33a6.2,6.2,0,0,1,2.26.63,2.72,2.72,0,0,1,1.22,1,1.17,1.17,0,0,1-.06,1.24,3.47,3.47,0,0,1-1.34,1.14l2.13,1-1.18.61L210.2,44a9.85,9.85,0,0,1-3.23.64,8.11,8.11,0,0,1-3.47-.61l2.25-1.17a4.49,4.49,0,0,0,1.47.3,4.26,4.26,0,0,0,1.1-.09l-3.23-1.59c-.93.25-1.73.44-2.38.56a8.62,8.62,0,0,1-2.16.09,6.26,6.26,0,0,1-2.28-.64A2.39,2.39,0,0,1,197,40.37a1.23,1.23,0,0,1,.18-1.23,3.76,3.76,0,0,1,1.15-1l-2.11-1,1.18-.61,2.14,1a8.88,8.88,0,0,1,3.18-.67,8.06,8.06,0,0,1,3.29.57l-2.28,1.18a4.19,4.19,0,0,0-1.33-.25,3.78,3.78,0,0,0-1,.09L204.59,40l.14,0q1.43-.37,2.45-.55A8.51,8.51,0,0,1,209.35,39.33Zm.71,2.55c0-.27-.23-.51-.66-.72a2.88,2.88,0,0,0-1.36-.28,7.55,7.55,0,0,0-1.34.17l2.94,1.45c.28-.2.42-.4.42-.61m-7.11-1.49L200.18,39a.78.78,0,0,0-.36.52c0,.24.19.46.61.67a2.93,2.93,0,0,0,1.32.29,7.36,7.36,0,0,0,1.2-.12" fill="#4e6628"></path><path d="M156.5,128.43,130,240.24c-.64,2.69,3.51,3.84,4.15,1.14l26.46-111.81c.64-2.69-3.51-3.84-4.15-1.14Z" fill="#9e4c36"></path><path d="M181.33,141.67,154.87,253.47c-.64,2.69,3.51,3.84,4.15,1.14l26.46-111.81c.64-2.69-3.51-3.84-4.15-1.14Z" fill="#9e4c36"></path><path d="M153.74,146.07l24.83,13.87c2.42,1.35,4.59-2.36,2.17-3.71l-24.83-13.87c-2.42-1.35-4.59,2.36-2.17,3.71Z" fill="#9e4c36"></path><path d="M151.15,161.61,175,174.91c2.42,1.35,4.59-2.36,2.17-3.71l-23.82-13.3c-2.42-1.35-4.59,2.36-2.17,3.71Z" fill="#9e4c36"></path><path d="M148.27,174.2l23.78,13.29c2.42,1.35,4.59-2.36,2.17-3.71l-23.78-13.29c-2.42-1.35-4.59,2.36-2.17,3.71Z" fill="#9e4c36"></path><path d="M144.53,187.74,168.1,200.9c2.42,1.35,4.59-2.36,2.17-3.71L146.7,184c-2.42-1.35-4.59,2.36-2.17,3.71Z" fill="#9e4c36"></path><path d="M141.29,200.13l23.61,13.19c2.42,1.35,4.59-2.36,2.17-3.71l-23.61-13.19c-2.42-1.35-4.59,2.36-2.17,3.71Z" fill="#9e4c36"></path><path d="M137.69,214.54l24.83,13.87c2.42,1.35,4.59-2.36,2.17-3.71l-24.83-13.87c-2.42-1.35-4.59,2.36-2.17,3.71Z" fill="#9e4c36"></path><path d="M184.2,77.41s2.74-3.34,3-4.46.38-5.66,1.18-5.76,1.25.83,1.73.73a9.93,9.93,0,0,1,2.12-.39c.17.12,2.92,3,2.58,4.14s-4.62,4-4.62,4L185,81.37" fill="#fcbf81"></path><path d="M158.07,71.39s-.44-4.3,0-5.35,2.82-4.93,2.2-5.46-1.5,0-1.85-.35-1.34-1.5-1.55-1.5-4.08.88-4.43,2,1.63,5.9,1.63,5.9l1.19,7.62" fill="#fcbf81"></path><path d="M163.67,92.6s-5.2-23.2-5.93-23.35a8.52,8.52,0,0,0-5,1.17c-1.81,1.17,2.12,27.43,2.12,27.43" fill="#aa2b2b"></path><path d="M161.05,188.58l3.46,1.56a2,2,0,0,0,1.33,1.43.79.79,0,0,0,.47.32,9.36,9.36,0,0,0,4.29-.34c1.75-.4,8.61-2.41,6.37,2.22-1.28.76-2.7,1.38-4,2-.73.37-1.47.74-2.22,1.07a4.22,4.22,0,0,1-1.29.48c-1,.07-3.23-.84-3.31-.6s-.44,2.06-.44,2.06-6.24,1.83-6.18-2.25C159.54,196,161.05,188.58,161.05,188.58Z" fill="#34323d"></path><path d="M157.91,182.77s6.21-2.18,7.65-2.17,3.82.7,1.5,3.17c0,0-6.63,3.62-7.47,3.68s-2.81-.73-2.88-.52-.38,1.79-.38,1.79-5.43,1.59-5.38-2c0-.46,1.32-6.94,1.32-6.94" fill="#34323d"></path><path d="M159,151.75c.22-12,.78-24.11-.8-36.08.14-3.07-2-1.27-1.77-2.48,1.87-9.76,15.27,3.11,15.27,3.11.54.52.37,3.55.43,4.24q.51,5.75.75,11.52c.83,19.42-1.59,38.48-4.11,57.69-3.3,2.87-5.37,3.64-10.12,1.24,0-12.7.12-25.41.32-38.11Q159,152.32,159,151.75Z" fill="#68e1fd"></path><path d="M151,172.93c.31-4.78.89-9.55,1.3-14.28.63-7.25.44-14.51.54-21.77.91-9,1.82-20.44,1.82-20.44l7.45,2.07s4.84,62.74-2.59,65.4-8.57-2.17-8.57-2.17S151,178.05,151,172.93Z" fill="#68e1fd"></path><path d="M154.07,116a20,20,0,0,1,.48-3.74,44.61,44.61,0,0,0,0-12c-.46-3.85-.49-7.84,1.89-11.12,3.43-2,8.2-.21,11.08,1.91,3.91,2.88,5.22,22.44,5.16,28.49,0,.85-5.18,1.29-5.77,1.33a24.36,24.36,0,0,1-8-.6c-1.87-.5-4.2-1.43-4.72-3.52A3.89,3.89,0,0,1,154.07,116Z" fill="#ea4949"></path><path d="M158.9,121.65a.54.54,0,0,1,1,.34c-3.53,10.82,2.32,22,1.19,33.06-.6,5.82-1.63,11.54-2,17.39a139.5,139.5,0,0,0,.19,18.64c.05.69-1,.63-1.08-.05a139.5,139.5,0,0,1-.19-18.64c.36-6.17,1.56-12.21,2.06-18.36C161,143.18,155.4,132.36,158.9,121.65Z" fill="#34323d"></path><path d="M163.1,78.05c.33.07,3.3,6.22,2.39,10.06s-7.53.2-9.27-2.63S156.93,76.72,163.1,78.05Z" fill="#fcbf81"></path><path d="M163,78.93a3,3,0,0,1-1.69,2.81c-1.78.74-3.26,1.25-3.13,2.08s3.26-.25,3.35,1.66a14.27,14.27,0,0,1-.36,3.84c-.16.95-5.7-1.71-7.69-6.54s2.44-6.31,2.65-6.35a4.55,4.55,0,0,1,2.74-2c2.18-.57,2.83.26,2.83.26a2.66,2.66,0,0,1,3.22.22,3.39,3.39,0,0,1-.55,5.76Z" fill="#34323d"></path><path d="M164.15,89.51s6.68.06,9.72-2.26,11.68-14,11.68-14,6.32,4.37,6.33,5.79-10.72,16.31-13.68,18-9.15,5.37-9.15,5.37" fill="#ea4949"></path><path d="M171,101.09s-2.25-.06-3.34,0,4.7,10.79,4.7,10.79Z" fill="#aa2b2b"></path><ellipse cx="265.28" cy="197.44" rx="23.4" ry="13.71" fill="#ff912e"></ellipse><polygon points="241.88 197.44 241.88 193.48 244.43 196.65 241.88 197.44" fill="#e0944f"></polygon><polygon points="288.69 193.48 288.69 197.44 285.72 197.44 287.89 194.26 288.69 193.48" fill="#e0944f"></polygon><ellipse cx="265.28" cy="193.48" rx="23.4" ry="13.71" fill="#ffb92c"></ellipse><path d="M277.15,191.65a1.83,1.83,0,0,1,.19,1l-.09.36-4.27,0a1.94,1.94,0,0,0,.08-.36,1.6,1.6,0,0,0-.26-.78,2.34,2.34,0,0,0-1-.95,4.68,4.68,0,0,0-2-.53,4.33,4.33,0,0,0-1.91.29q-.9.38-.69,1a3.7,3.7,0,0,0,.91,1.34,16.27,16.27,0,0,1,1.3,1.49,1.56,1.56,0,0,1,.23,1.65,3.68,3.68,0,0,1-2.08,1.62,12.29,12.29,0,0,1-4.53.94,14.48,14.48,0,0,1-5-.7l-2.46,1.06-2.88-1.4,2.39-1a5.39,5.39,0,0,1-1.14-1,3,3,0,0,1-.57-1,3.14,3.14,0,0,1-.15-.77,1.67,1.67,0,0,1,0-.54l.08-.2h4.27a3.41,3.41,0,0,0-.1.43,1.82,1.82,0,0,0,.34,1,3.21,3.21,0,0,0,1.42,1.21,6.07,6.07,0,0,0,2.48.64,5.17,5.17,0,0,0,2.29-.37q.89-.38.67-1a3.69,3.69,0,0,0-.94-1.34,13.68,13.68,0,0,1-1.31-1.48,1.53,1.53,0,0,1-.18-1.66,4,4,0,0,1,2.18-1.65,11.76,11.76,0,0,1,4.34-.85,12.54,12.54,0,0,1,4.63.72l2.45-1.05,2.68,1.46-2.46,1.06A3.5,3.5,0,0,1,277.15,191.65Z" fill="#ea8b24"></path><ellipse cx="265.32" cy="193.65" rx="19.65" ry="11.51" fill="none" stroke="#f7931e" stroke-miterlimit="10" stroke-width="2"></ellipse><ellipse cx="265.28" cy="187.51" rx="23.4" ry="13.71" fill="#ff912e"></ellipse><polygon points="241.88 187.51 241.88 183.55 244.43 186.71 241.88 187.51" fill="#e0944f"></polygon><polygon points="288.69 183.55 288.69 187.51 285.72 187.51 287.89 184.33 288.69 183.55" fill="#e0944f"></polygon><ellipse cx="265.28" cy="183.55" rx="23.4" ry="13.71" fill="#ffb92c"></ellipse><path d="M277.15,181.72a1.83,1.83,0,0,1,.19,1l-.09.36-4.27,0a1.94,1.94,0,0,0,.08-.36,1.6,1.6,0,0,0-.26-.78,2.34,2.34,0,0,0-1-.95,4.68,4.68,0,0,0-2-.53,4.33,4.33,0,0,0-1.91.29q-.9.38-.69,1a3.7,3.7,0,0,0,.91,1.34,16.27,16.27,0,0,1,1.3,1.49,1.56,1.56,0,0,1,.23,1.65,3.68,3.68,0,0,1-2.08,1.62,12.29,12.29,0,0,1-4.53.94,14.48,14.48,0,0,1-5-.7l-2.46,1.06-2.88-1.4,2.39-1a5.39,5.39,0,0,1-1.14-1,3,3,0,0,1-.57-1,3.14,3.14,0,0,1-.15-.77,1.67,1.67,0,0,1,0-.54l.08-.2h4.27a3.41,3.41,0,0,0-.1.43,1.82,1.82,0,0,0,.34,1,3.21,3.21,0,0,0,1.42,1.21,6.07,6.07,0,0,0,2.48.64,5.17,5.17,0,0,0,2.29-.37q.89-.38.67-1a3.69,3.69,0,0,0-.94-1.34,13.68,13.68,0,0,1-1.31-1.48,1.53,1.53,0,0,1-.18-1.66,4,4,0,0,1,2.18-1.65,11.76,11.76,0,0,1,4.34-.85,12.54,12.54,0,0,1,4.63.72l2.45-1.05,2.68,1.46-2.46,1.06A3.5,3.5,0,0,1,277.15,181.72Z" fill="#ea8b24"></path><ellipse cx="265.32" cy="183.71" rx="19.65" ry="11.51" fill="none" stroke="#f7931e" stroke-miterlimit="10" stroke-width="2"></ellipse><ellipse cx="265.28" cy="182.76" rx="23.4" ry="13.71" fill="#ff912e"></ellipse><polygon points="241.88 182.76 241.88 178.8 244.43 181.97 241.88 182.76" fill="#e0944f"></polygon><polygon points="288.69 178.8 288.69 182.76 285.72 182.76 287.89 179.58 288.69 178.8" fill="#e0944f"></polygon><ellipse cx="265.28" cy="178.8" rx="23.4" ry="13.71" fill="#ffb92c"></ellipse><path d="M277.15,177a1.83,1.83,0,0,1,.19,1l-.09.36-4.27,0a1.94,1.94,0,0,0,.08-.36,1.6,1.6,0,0,0-.26-.78,2.34,2.34,0,0,0-1-.95,4.68,4.68,0,0,0-2-.53,4.33,4.33,0,0,0-1.91.29q-.9.38-.69,1a3.7,3.7,0,0,0,.91,1.34,16.27,16.27,0,0,1,1.3,1.49,1.56,1.56,0,0,1,.23,1.65,3.68,3.68,0,0,1-2.08,1.62,12.29,12.29,0,0,1-4.53.94,14.48,14.48,0,0,1-5-.7l-2.46,1.06-2.88-1.4,2.39-1a5.39,5.39,0,0,1-1.14-1,3,3,0,0,1-.57-1,3.14,3.14,0,0,1-.15-.77,1.67,1.67,0,0,1,0-.54l.08-.2h4.27a3.41,3.41,0,0,0-.1.43,1.82,1.82,0,0,0,.34,1,3.21,3.21,0,0,0,1.42,1.21,6.07,6.07,0,0,0,2.48.64,5.17,5.17,0,0,0,2.29-.37q.89-.38.67-1a3.69,3.69,0,0,0-.94-1.34,13.68,13.68,0,0,1-1.31-1.48,1.53,1.53,0,0,1-.18-1.66,4,4,0,0,1,2.18-1.65,11.76,11.76,0,0,1,4.34-.85,12.54,12.54,0,0,1,4.63.72l2.45-1.05,2.68,1.46-2.46,1.06A3.5,3.5,0,0,1,277.15,177Z" fill="#ea8b24"></path><ellipse cx="265.32" cy="178.97" rx="19.65" ry="11.51" fill="none" stroke="#f7931e" stroke-miterlimit="10" stroke-width="2"></ellipse><ellipse cx="265.28" cy="177.93" rx="23.4" ry="13.71" fill="#ff912e"></ellipse><polygon points="241.88 177.93 241.88 173.97 244.43 177.13 241.88 177.93" fill="#e0944f"></polygon><polygon points="288.69 173.97 288.69 177.93 285.72 177.93 287.89 174.75 288.69 173.97" fill="#e0944f"></polygon><ellipse cx="265.28" cy="173.97" rx="23.4" ry="13.71" fill="#ffb92c"></ellipse><path d="M277.15,172.13a1.83,1.83,0,0,1,.19,1l-.09.36-4.27,0a1.94,1.94,0,0,0,.08-.36,1.6,1.6,0,0,0-.26-.78,2.34,2.34,0,0,0-1-.95,4.68,4.68,0,0,0-2-.53,4.33,4.33,0,0,0-1.91.29q-.9.38-.69,1a3.7,3.7,0,0,0,.91,1.34,16.27,16.27,0,0,1,1.3,1.49,1.56,1.56,0,0,1,.23,1.65,3.68,3.68,0,0,1-2.08,1.62,12.29,12.29,0,0,1-4.53.94,14.48,14.48,0,0,1-5-.7l-2.46,1.06-2.88-1.4,2.39-1a5.39,5.39,0,0,1-1.14-1,3,3,0,0,1-.57-1,3.14,3.14,0,0,1-.15-.77,1.67,1.67,0,0,1,0-.54l.08-.2h4.27a3.41,3.41,0,0,0-.1.43,1.82,1.82,0,0,0,.34,1,3.21,3.21,0,0,0,1.42,1.21,6.07,6.07,0,0,0,2.48.64,5.17,5.17,0,0,0,2.29-.37q.89-.38.67-1a3.69,3.69,0,0,0-.94-1.34,13.68,13.68,0,0,1-1.31-1.48,1.53,1.53,0,0,1-.18-1.66,4,4,0,0,1,2.18-1.65,11.76,11.76,0,0,1,4.34-.85,12.54,12.54,0,0,1,4.63.72l2.45-1.05,2.68,1.46-2.46,1.06A3.5,3.5,0,0,1,277.15,172.13Z" fill="#ea8b24"></path><ellipse cx="265.32" cy="174.13" rx="19.65" ry="11.51" fill="none" stroke="#f7931e" stroke-miterlimit="10" stroke-width="2"></ellipse><ellipse cx="258.98" cy="169.47" rx="23.4" ry="13.71" fill="#ff912e"></ellipse><polygon points="235.58 169.47 235.58 165.51 238.13 168.68 235.58 169.47" fill="#e0944f"></polygon><polygon points="282.39 165.51 282.39 169.47 279.42 169.47 281.6 166.29 282.39 165.51" fill="#e0944f"></polygon><ellipse cx="258.98" cy="165.51" rx="23.4" ry="13.71" fill="#ffb92c"></ellipse><path d="M270.86,163.68a1.83,1.83,0,0,1,.19,1l-.09.36-4.27,0a1.94,1.94,0,0,0,.08-.36,1.6,1.6,0,0,0-.26-.78,2.34,2.34,0,0,0-1-.95,4.68,4.68,0,0,0-2-.53,4.33,4.33,0,0,0-1.91.29q-.9.38-.69,1a3.7,3.7,0,0,0,.91,1.34,16.27,16.27,0,0,1,1.3,1.49,1.56,1.56,0,0,1,.23,1.65,3.68,3.68,0,0,1-2.08,1.62,12.29,12.29,0,0,1-4.53.94,14.48,14.48,0,0,1-5-.7l-2.46,1.06-2.88-1.4,2.39-1a5.39,5.39,0,0,1-1.14-1,3,3,0,0,1-.57-1,3.14,3.14,0,0,1-.15-.77,1.67,1.67,0,0,1,0-.54l.08-.2h4.27a3.41,3.41,0,0,0-.1.43,1.82,1.82,0,0,0,.34,1,3.21,3.21,0,0,0,1.42,1.21,6.07,6.07,0,0,0,2.48.64,5.17,5.17,0,0,0,2.29-.37q.89-.38.67-1a3.69,3.69,0,0,0-.94-1.34,13.68,13.68,0,0,1-1.31-1.48,1.53,1.53,0,0,1-.18-1.66,4,4,0,0,1,2.18-1.65,11.76,11.76,0,0,1,4.34-.85,12.54,12.54,0,0,1,4.63.72l2.45-1.05,2.68,1.46-2.46,1.06A3.5,3.5,0,0,1,270.86,163.68Z" fill="#ea8b24"></path><ellipse cx="259.03" cy="165.68" rx="19.65" ry="11.51" fill="none" stroke="#f7931e" stroke-miterlimit="10" stroke-width="2"></ellipse><ellipse cx="258.98" cy="164.48" rx="23.4" ry="13.71" fill="#ff912e"></ellipse><polygon points="235.58 164.48 235.58 160.52 238.13 163.68 235.58 164.48" fill="#e0944f"></polygon><polygon points="282.39 160.52 282.39 164.48 279.42 164.48 281.6 161.3 282.39 160.52" fill="#e0944f"></polygon><ellipse cx="258.98" cy="160.52" rx="23.4" ry="13.71" fill="#ffb92c"></ellipse><path d="M270.86,158.68a1.83,1.83,0,0,1,.19,1l-.09.36-4.27,0a1.94,1.94,0,0,0,.08-.36,1.6,1.6,0,0,0-.26-.78,2.34,2.34,0,0,0-1-.95,4.68,4.68,0,0,0-2-.53,4.33,4.33,0,0,0-1.91.29q-.9.38-.69,1a3.7,3.7,0,0,0,.91,1.34,16.27,16.27,0,0,1,1.3,1.49,1.56,1.56,0,0,1,.23,1.65,3.68,3.68,0,0,1-2.08,1.62,12.29,12.29,0,0,1-4.53.94,14.48,14.48,0,0,1-5-.7l-2.46,1.06-2.88-1.4,2.39-1a5.39,5.39,0,0,1-1.14-1,3,3,0,0,1-.57-1,3.14,3.14,0,0,1-.15-.77,1.67,1.67,0,0,1,0-.54l.08-.2h4.27a3.41,3.41,0,0,0-.1.43,1.82,1.82,0,0,0,.34,1,3.21,3.21,0,0,0,1.42,1.21,6.07,6.07,0,0,0,2.48.64,5.17,5.17,0,0,0,2.29-.37q.89-.38.67-1a3.69,3.69,0,0,0-.94-1.34,13.68,13.68,0,0,1-1.31-1.48,1.53,1.53,0,0,1-.18-1.66,4,4,0,0,1,2.18-1.65,11.76,11.76,0,0,1,4.34-.85,12.54,12.54,0,0,1,4.63.72l2.45-1.05,2.68,1.46-2.46,1.06A3.5,3.5,0,0,1,270.86,158.68Z" fill="#ea8b24"></path><ellipse cx="259.03" cy="160.68" rx="19.65" ry="11.51" fill="none" stroke="#f7931e" stroke-miterlimit="10" stroke-width="2"></ellipse><ellipse cx="259.35" cy="159.73" rx="23.4" ry="13.71" fill="#ff912e"></ellipse><polygon points="235.95 159.73 235.95 155.77 238.5 158.94 235.95 159.73" fill="#e0944f"></polygon><polygon points="282.76 155.77 282.76 159.73 279.79 159.73 281.96 156.55 282.76 155.77" fill="#e0944f"></polygon><ellipse cx="259.35" cy="155.77" rx="23.4" ry="13.71" fill="#ffb92c"></ellipse><path d="M271.22,153.94a1.83,1.83,0,0,1,.19,1l-.09.36-4.27,0a1.94,1.94,0,0,0,.08-.36,1.6,1.6,0,0,0-.26-.78,2.34,2.34,0,0,0-1-.95,4.68,4.68,0,0,0-2-.53,4.33,4.33,0,0,0-1.91.29q-.9.38-.69,1a3.7,3.7,0,0,0,.91,1.34,16.27,16.27,0,0,1,1.3,1.49,1.56,1.56,0,0,1,.23,1.65,3.68,3.68,0,0,1-2.08,1.62,12.29,12.29,0,0,1-4.53.94,14.48,14.48,0,0,1-5-.7l-2.46,1.06-2.88-1.4,2.39-1a5.39,5.39,0,0,1-1.14-1,3,3,0,0,1-.57-1,3.14,3.14,0,0,1-.15-.77,1.67,1.67,0,0,1,0-.54l.08-.2h4.27a3.41,3.41,0,0,0-.1.43,1.82,1.82,0,0,0,.34,1,3.21,3.21,0,0,0,1.42,1.21,6.07,6.07,0,0,0,2.48.64,5.17,5.17,0,0,0,2.29-.37q.89-.38.67-1a3.69,3.69,0,0,0-.94-1.34,13.68,13.68,0,0,1-1.31-1.48,1.53,1.53,0,0,1-.18-1.66,4,4,0,0,1,2.18-1.65,11.76,11.76,0,0,1,4.34-.85,12.54,12.54,0,0,1,4.63.72L270,150.1l2.68,1.46-2.46,1.06A3.5,3.5,0,0,1,271.22,153.94Z" fill="#ea8b24"></path><ellipse cx="259.39" cy="155.94" rx="19.65" ry="11.51" fill="none" stroke="#f7931e" stroke-miterlimit="10" stroke-width="2"></ellipse><path d="M278.62,149.21s.6,9.2-6.56,9.76c0,0,6.06,2.51,7.06,7.33,0,0,.75-6.72,6.9-7.41A9.46,9.46,0,0,1,278.62,149.21Z" fill="#fff"></path><path d="M236.9,31.34s.46,7.15-5.1,7.59c0,0,4.71,2,5.49,5.69,0,0,.58-5.22,5.36-5.76A7.35,7.35,0,0,1,236.9,31.34Z" fill="#fff"></path><polygon points="284.8 47.77 268.77 67.34 280.31 67.34 280.31 100.42 288.99 100.42 288.99 67.54 299.93 67.54 284.8 47.77" fill="#662d91"></polygon><polygon points="285.8 127.89 288.99 123.19 288.99 71.44 296.74 71.44 299.93 67.54 290.99 55.86 282.55 70.95 285.8 127.89" fill="#662d91"></polygon><polygon points="281.61 51.67 265.58 71.24 277.12 71.24 277.12 127.89 285.8 127.89 285.8 71.44 296.74 71.44 281.61 51.67" fill="#8b54ba"></polygon></g></g></svg>