<svg xmlns="http://www.w3.org/2000/svg" xmlns:xlink="http://www.w3.org/1999/xlink" viewBox="0 0 400 300" width="406" height="306" class="illustration styles_illustrationTablet__1DWOa"><defs><linearGradient id="linear-gradient" x1="235.31" y1="168.95" x2="174.38" y2="224.99" gradientUnits="userSpaceOnUse"><stop offset="0" stop-color="#00a99d"></stop><stop offset="1" stop-color="#fff"></stop></linearGradient><linearGradient id="linear-gradient-2" x1="60.66" y1="162.24" x2="43.16" y2="187.37" xlink:href="#linear-gradient"></linearGradient></defs><title>PP</title><g style="isolation: isolate;"><g id="Layer_2" data-name="Layer 2"><path d="M194.28,287,14.56,180.76c-5.72-3.21-10.63-8.49-5.05-11.94l180.37-104c2.71-1.68,6.82-2.78,9.57-1.18L388.11,173.18c5.72,3.32,6.75,12.6,1,15.93L218,286.81A23.9,23.9,0,0,1,194.28,287Z" fill="#8383ea"></path><polyline points="193.26 172.23 120.26 214.58 191.81 256.93 259.71 206.69" fill="url(#linear-gradient)" style="mix-blend-mode: multiply;"></polyline><polyline points="194.5 10.69 187.84 13.64 194.24 16.46 195.79 13.15" fill="#68e1fd"></polyline><path d="M255.27,206.64l-55.41-32.29a14.77,14.77,0,0,1-7.34-12.76L190.74,14.92c0-3.85,6-5.81,9.29-3.85l57.33,33.86A9.5,9.5,0,0,1,262,53.11V202.76A4.49,4.49,0,0,1,255.27,206.64Z" fill="#68e1fd"></path><polyline points="259.71 206.69 252.47 210.51 253.31 205.46 258.34 204.56" fill="#68e1fd"></polyline><path d="M248.33,210.32,192.92,178a14.77,14.77,0,0,1-7.34-12.76V17.19a3.92,3.92,0,0,1,5.92-3.38l58.91,34.79a9.5,9.5,0,0,1,4.67,8.18V206.44A4.49,4.49,0,0,1,248.33,210.32Z" fill="#f4f4f4"></path><polygon points="251.56 65.82 188.43 29.62 188.43 159.16 251.56 195.65 251.56 65.82" fill="#fff"></polygon><ellipse cx="214.12" cy="182.79" rx="2.91" ry="3.93" transform="translate(-36.59 54.71) rotate(-13.43)" fill="#bababc"></ellipse><path d="M211.76,35.85h0a1.41,1.41,0,0,0,.71,1.22l12.2,7a1.41,1.41,0,0,0,2.11-1.22v-.3a1.41,1.41,0,0,0-.73-1.23l-12.2-6.71A1.41,1.41,0,0,0,211.76,35.85Z" fill="#ccc"></path><ellipse cx="206.15" cy="32.13" rx="1.38" ry="1.88" transform="translate(1.66 73.54) rotate(-20.31)" fill="#ccc"></ellipse><path d="M207.46,116.45c.16,2.21-.5,3.74-2.85,2.48l-.55-.3-.27-.15c-.32-.18-.47-.06-.49.28,0,.65-.09,1.28-.11,1.93,0,.4-.14.51-.46.34l-.06,0-.63-.35-.44-.23a.55.55,0,0,1-.3-.58c.17-2.66.35-5.32.5-8,0-.49.21-.57.58-.36l.05,0c.33.2.66.39,1,.57l.5.27.3.17a13.8,13.8,0,0,1,1.74,1.1A3.9,3.9,0,0,1,207.46,116.45Zm-2-.29a1.49,1.49,0,0,0-.39-1.15,6,6,0,0,0-.69-.54l-.34-.22-.18-.11a.31.31,0,0,0-.12,0,.18.18,0,0,0-.17.19c-.06.68-.09,1.39-.14,2.21a9.07,9.07,0,0,0,1.44.6c.47.11.6-.35.59-.93" fill="#003087"></path><path d="M213.36,120.62a.54.54,0,0,1,.3.58c-.11,1.69-.24,3.37-.33,5.07,0,.38-.16.46-.44.31l-.07,0-.35-.21-.35-.18-.15-.08a.71.71,0,0,1-.37-.91l-.4.13a1.8,1.8,0,0,1-1.39-.23,4.53,4.53,0,0,1-.75-.53,4.79,4.79,0,0,1-1.56-2.91c-.41-2.39.67-3.74,2.43-3l.35.17a4,4,0,0,1,1.58,1.66c0-.55.22-.5.5-.35l.18.1.34.2Zm-3,3.11c.84.45,1.49-.06,1.41-1.11a2.63,2.63,0,0,0-1.25-2h0c-.84-.44-1.47.08-1.39,1.15a2.57,2.57,0,0,0,1.22,2h0" fill="#003087"></path><path d="M217.46,87.35c1.43.78,2.69,1.49,3.26,1.85a12,12,0,0,1,5.72,10.49,6.48,6.48,0,0,1-2.1,4.95c-1.63,1.38-5.24-.47-7.09-1.48l-.35-.19-.42-.24-.26-.14c-.79-.34-.91.54-.91.59l-.53,8.06-4.43-2.42a1.51,1.51,0,0,1-.68-1.26c.24-3.75,1.19-18.72,1.44-22.65,0-.54.4-.76.87-.52C213.17,85,215.47,86.27,217.46,87.35Z" fill="#003087"></path><g style="isolation: isolate;"><path d="M219.8,124.11a9,9,0,0,1,.76.48.35.35,0,0,1,.08.55l-1.15,1.69c-.86,1.25-1.72,2.5-2.57,3.76a.35.35,0,0,1-.55.12l-.07,0-.44-.24-.43-.24a3.92,3.92,0,0,1-.42-.36,1.76,1.76,0,0,1,.11-.48,13.64,13.64,0,0,1,.88-1.24c.16-.19.17-.43,0-.84-.54-1.8-1.06-3.61-1.58-5.42-.18-.61-.15-.67.3-.43l.63.36.31.16.07,0a1.17,1.17,0,0,1,.52.81c.29,1.11.59,2.24.94,3.54.48-.73.9-1.35,1.32-2,.15-.21.3-.56.52-.5A3.29,3.29,0,0,1,219.8,124.11Z" fill="#003087"></path><path d="M225.55,124.29a4.13,4.13,0,0,1,1.71,3.43c0,1.82-.69,2.7-2,2.31a10.48,10.48,0,0,1-1.58-.72c-.49-.24-.6-.21-.64.4s-.09,1.24-.12,1.87c0,.32-.14.37-.38.24h0l-.54-.3-.53-.28a.61.61,0,0,1-.33-.64q.25-4,.51-8c0-.35.15-.48.47-.3l0,0,.51.29,1,.54v0A18.64,18.64,0,0,1,225.55,124.29Zm-.73,3.64c.47.06.52-.5.48-1.11a1.6,1.6,0,0,0-.48-1.15,8.17,8.17,0,0,0-1.22-.8c-.08,0-.21,0-.22.16-.07.69-.11,1.41-.17,2.3a9.14,9.14,0,0,0,1.61.58" fill="#009cde"></path><path d="M226.44,99.7a10,10,0,0,1,2.09,7.54c-.4,3.1-1.3,3.48-2.63,4.17s-4.44-1.2-5-1.44-.65.46-.65.5l-.38,5.92c0,.49-.36.68-.78.46l-2.47-1.35-1.18-.65a1.74,1.74,0,0,1-.78-1.44l.12-2.16.53-8.06s.12-.92.91-.59l.26.14.42.24.35.19c1.85,1,5.46,2.85,7.09,1.48A6.48,6.48,0,0,0,226.44,99.7Z" fill="#009cde"></path></g><path d="M235.48,129.61c.84.46.82.45.76,1.43-.16,2.33-.31,4.68-.44,7-.06.91-.07,1-.85.53s-.87-.47-.8-1.48q.24-3.55.47-7.11C234.67,129.17,234.66,129.16,235.48,129.61Z" fill="#009cde"></path><path d="M233.23,131.56a1.08,1.08,0,0,1,.17.54c-.09,1.67-.2,3.32-.31,5,0,.29-.14.42-.42.27l-.42-.24L232,137l-.12-.06a.86.86,0,0,1-.48-1,1.94,1.94,0,0,1-1.8-.16l-.15-.08a4.67,4.67,0,0,1-2-3.06c-.42-2,.31-3.53,1.65-3.38a2.72,2.72,0,0,1,1,.32,4.46,4.46,0,0,1,1.57,1.58c.12-.11.21-.37.35-.31a4.24,4.24,0,0,1,.52.24C232.73,131.24,233,131.4,233.23,131.56Zm-3,3c.84.45,1.53-.09,1.45-1.14a2.73,2.73,0,0,0-1.3-2.09c-.86-.47-1.5,0-1.44,1.14a2.67,2.67,0,0,0,1.27,2.07h0" fill="#009cde"></path><path d="M153.93,148.14s3.1,4.52,3.61,3.58,1.67-8,1.67-8l-6.88-2.61" fill="#eead97"></path><path d="M182,237.48a1,1,0,0,0,1,.93c.94.08,9.83-3.75,12,1.43a1.48,1.48,0,0,1-.59,1.79,35.18,35.18,0,0,1-14.62,5.31,8.23,8.23,0,0,1-5.26-.67l.42-9.77Z" fill="#c24327"></path><path d="M160.48,233s8.31-5.42,9.76-2c1.12,2.65-8.82,10.39-12.47,11s-4.15-3.23-4.15-3.23l.12-6.3" fill="#c24327"></path><path d="M176.75,154s8.32,17.94,8.18,82.7c0,0-1.7,4.47-13.72,1.4l-4.88-57.84-2.11,53.37s-5.65,4.19-14.43-.84c0,0,2-71.41,6.77-84.22" fill="#68e1fd"></path><path d="M156.15,150.76c-2.08-8.81-6.37-31.59-1.78-35.06,4-3,13.34.26,20.47,5.08,5.85,3.95,3.46,27,2.45,34.95C169.55,156.68,162.32,155.33,156.15,150.76Z" fill="#c24327"></path><path d="M173.64,102.83s.2,11.71-3.06,12a6,6,0,0,1-6.39-3.33" fill="#eead97"></path><path d="M168.92,113.36v5.57s-3,1.15-7.17-1.64v-4.54" fill="#eead97"></path><path d="M173.05,105s4-4.13,1.38-7.66-5.51-1.68-5.51-1.68-.61-1.53-3.68-1.84-4.29,2.76-5.51,3.52-3.22,3-3.37,4.88,2.6,12.27,5.82,13S169.53,117.24,173.05,105Z" fill="#c24327"></path><path d="M156.36,114.86s-6.91-.12-13.62,8.75,10.68,26.66,10.85,25.77,2.77-8.81,2.77-8.81-7.59-6.53-6.3-8.43,6.3-2.82,6.3-2.82" fill="#c24327"></path><path d="M201.63,134.3s6.49-1,7.32-2.16.39-4.21-.08-5-3,.58-3,.58,0-.82-1.11-.8-3,1.92-3,1.92l-6.8,4,.53,6.37Z" fill="#eead97"></path><path d="M176.6,123.46s7.28,11.47,7.41,11.82,10.82-4.71,10.82-4.71,2.91.77,5,6.32c0,0-9.11,12.41-22.27,9.87-6.28-1.21-9.38-12-9.38-12" fill="#c24327"></path><polyline points="77.39 176.47 47.51 195.65 21.45 180.28 52.84 161.54" fill="url(#linear-gradient-2)" style="mix-blend-mode: multiply;"></polyline><ellipse cx="64.05" cy="165.81" rx="19.62" ry="13.82" fill="#68e1fd"></ellipse><ellipse cx="64.06" cy="157.65" rx="14.69" ry="6.02" fill="#974c26"></ellipse><path d="M65,157.79c1.16-1.62,2.31-3.33,3.53-5.23,1.55-2.44,3-4.93,4.34-7.5a49.51,49.51,0,0,0,3.17-7.1,59.3,59.3,0,0,0,2.32-8.14c.15-.73.28-1.45.4-2.19.06-.34.07-.3.06-.25s0-.23.05-.63c.13-1.49.23-3,.25-4.46a37.52,37.52,0,0,0-2.92-15,64.78,64.78,0,0,0-10.49,25.66q-.15.82-.29,1.65s-.15,1-.21,1.41-.15,1.27-.16,1.39q-.11,1.05-.19,2.11c-.22,2.71-.31,5.42-.31,8.14C64.6,151,64.77,154.41,65,157.79Zm6.25-40.56q.54-.6,1.1-1.18h0a2.44,2.44,0,0,0-.07,1.05A3.36,3.36,0,0,0,71.29,117.24Z" fill="#999a1c"></path><path d="M65.41,158c.1-2,.15-4,.14-6.31,0-2.89-.13-5.78-.4-8.65A49.51,49.51,0,0,0,64,135.39a59.3,59.3,0,0,0-2.45-8.11c-.27-.69-.55-1.37-.84-2.06-.14-.32-.11-.29-.08-.25l-.3-.56c-.69-1.32-1.41-2.62-2.2-3.88a37.52,37.52,0,0,0-10.58-11.06,64.78,64.78,0,0,0,5,27.25q.32.78.65,1.54l.58,1.3.62,1.25q.48.94,1,1.88c1.28,2.39,2.67,4.73,4.14,7C61.38,152.57,63.35,155.34,65.41,158Zm-16.67-37.5q.12-.8.29-1.59h0a2.45,2.45,0,0,0,.51.92A3.36,3.36,0,0,0,48.74,120.54Z" fill="#999a1c"></path><path d="M65.5,159.08c-.59-1.1-1.23-2.23-2-3.45-.94-1.56-1.94-3.08-3-4.54a31.14,31.14,0,0,0-3.11-3.77,37.29,37.29,0,0,0-3.94-3.59c-.37-.29-.74-.56-1.12-.84-.18-.13-.15-.12-.12-.11l-.34-.21c-.8-.49-1.61-1-2.44-1.38a23.59,23.59,0,0,0-9.28-2.56A40.74,40.74,0,0,0,51.7,151.72l.85.62.73.51.74.48,1.13.7q2.2,1.32,4.5,2.45C61.56,157.43,63.52,158.28,65.5,159.08ZM44.4,144.22q-.19-.47-.36-1h0a1.54,1.54,0,0,0,.57.33A2.12,2.12,0,0,0,44.4,144.22Z" fill="#999a1c"></path><path d="M65,157.79c1.16-1.62,2.31-3.33,3.53-5.23,1.55-2.44,3-4.93,4.34-7.5a49.51,49.51,0,0,0,3.17-7.1,59.3,59.3,0,0,0,2.32-8.14c.15-.73.28-1.45.4-2.19.06-.34.07-.3.06-.25s0-.23.05-.63c.13-1.49.23-3,.25-4.46a37.52,37.52,0,0,0-2.92-15,64.78,64.78,0,0,0-10.49,25.66q-.15.82-.29,1.65s-.15,1-.21,1.41-.15,1.27-.16,1.39q-.11,1.05-.19,2.11c-.22,2.71-.31,5.42-.31,8.14C64.6,151,64.77,154.41,65,157.79Zm6.25-40.56q.54-.6,1.1-1.18h0a2.44,2.44,0,0,0-.07,1.05A3.36,3.36,0,0,0,71.29,117.24Z" fill="#999a1c"></path><path d="M65.41,158c.1-2,.15-4,.14-6.31,0-2.89-.13-5.78-.4-8.65A49.51,49.51,0,0,0,64,135.39a59.3,59.3,0,0,0-2.45-8.11c-.27-.69-.55-1.37-.84-2.06-.14-.32-.11-.29-.08-.25l-.3-.56c-.69-1.32-1.41-2.62-2.2-3.88a37.52,37.52,0,0,0-10.58-11.06,64.78,64.78,0,0,0,5,27.25q.32.78.65,1.54l.58,1.3.62,1.25q.48.94,1,1.88c1.28,2.39,2.67,4.73,4.14,7C61.38,152.57,63.35,155.34,65.41,158Zm-16.67-37.5q.12-.8.29-1.59h0a2.45,2.45,0,0,0,.51.92A3.36,3.36,0,0,0,48.74,120.54Z" fill="#999a1c"></path><path d="M65.5,159.08c-.59-1.1-1.23-2.23-2-3.45-.94-1.56-1.94-3.08-3-4.54a31.14,31.14,0,0,0-3.11-3.77,37.29,37.29,0,0,0-3.94-3.59c-.37-.29-.74-.56-1.12-.84-.18-.13-.15-.12-.12-.11l-.34-.21c-.8-.49-1.61-1-2.44-1.38a23.59,23.59,0,0,0-9.28-2.56A40.74,40.74,0,0,0,51.7,151.72l.85.62.73.51.74.48,1.13.7q2.2,1.32,4.5,2.45C61.56,157.43,63.52,158.28,65.5,159.08ZM44.4,144.22q-.19-.47-.36-1h0a1.54,1.54,0,0,0,.57.33A2.12,2.12,0,0,0,44.4,144.22Z" fill="#999a1c"></path></g></g></svg>