<svg xmlns="http://www.w3.org/2000/svg" xmlns:xlink="http://www.w3.org/1999/xlink" viewBox="0 0 400 300" width="406" height="306" class="illustration styles_illustrationTablet__1DWOa"><defs><linearGradient id="linear-gradient" x1="254.14" y1="179.32" x2="273.75" y2="148.26" gradientUnits="userSpaceOnUse"><stop offset="0" stop-color="#fff" stop-opacity="0"></stop><stop offset="0.99" stop-color="#754c24"></stop></linearGradient><linearGradient id="linear-gradient-2" x1="193.59" y1="266.06" x2="210.91" y2="238.08" xlink:href="#linear-gradient"></linearGradient><linearGradient id="linear-gradient-3" x1="31.28" y1="192.92" x2="42.54" y2="174.73" xlink:href="#linear-gradient"></linearGradient></defs><title>PP</title><g style="isolation: isolate;"><g id="Layer_2" data-name="Layer 2"><path d="M194.28,287.7,14.56,181.48C8.84,178.27,3.93,173,9.51,169.53l180.37-104c2.71-1.68,6.82-2.78,9.57-1.18L388.11,173.89c5.72,3.32,6.75,12.6,1,15.93L218,287.53A23.9,23.9,0,0,1,194.28,287.7Z" fill="#ffc2a4"></path><path d="M222,125.37l-35.13,17.12,111.62,65.93,42.27-22.86C334.34,181.42,228.44,129.4,222,125.37Z" opacity="0.63" fill="url(#linear-gradient)" style="mix-blend-mode: multiply;"></path><path d="M213.19,233.42l-35.13,17.12,21.65,15.73,30.11-18.13C223.41,244,219.65,237.46,213.19,233.42Z" opacity="0.63" fill="url(#linear-gradient-2)" style="mix-blend-mode: multiply;"></path><path d="M42,170.46l-22.26,13,19.3,11.24,12.71-6.81C45.37,183.76,48.47,174.5,42,170.46Z" opacity="0.63" fill="url(#linear-gradient-3)" style="mix-blend-mode: multiply;"></path><path d="M340.74,92.08,202.85,14V102a6.58,6.58,0,0,0,3.34,5.73l124.73,70.58a6.58,6.58,0,0,0,9.82-5.73Z" fill="#68e1fd"></path><path d="M333.16,178.27l-87.71-49.64c-12.57-7.11-26-13.54-38.06-21.54-4-2.66-3.41-6.22-3.41-10.38V14l-1.69,1L291,65.21l44.79,25.35c1.31.74,2.61,1.55,4,2.24.85.44.06.26-.1-.65a7.5,7.5,0,0,1,0,1.77c-.69,7.79,0,16,0,23.78v52.09c0,3.65.65,11.55-6.45,8.48-1.32-.57-2.46,1.37-1.14,1.94,5.71,2.46,9.71-1.54,9.84-7.1s0-11.12,0-16.67V92.08a1.13,1.13,0,0,0-.56-1l-121-68.48-16.87-9.55a1.14,1.14,0,0,0-1.69,1V92.84c0,4.66-1.36,11.8,2.75,15.08,2.65,2.12,6.1,3.56,9,5.23l22.16,12.54,58.7,33.22L332,180.21A1.13,1.13,0,0,0,333.16,178.27Z" fill="#603813"></path><path d="M200.87,97.84c-1.64-.07-7.86,2.79-7.86,2.79V108l142.7,80.23s6.45-3.41,6.45-4.53-1-8.22-1-8.22Z" fill="#e09a34"></path><polygon points="32.38 176.43 68.61 155.52 88.35 166.72 51.77 187.89 32.38 176.43" fill="#ffb164"></polygon><polyline points="70.44 168.06 70.44 172.25 53.09 182.03 43.55 176.4 43.55 172.73" fill="#dbdbdb"></polyline><polygon points="43.55 172.73 60.96 162.68 70.44 168.06 52.87 178.24 43.55 172.73" fill="#606060"></polygon><polygon points="68.16 81.94 88.29 72.06 88.29 166.89 68.16 155.52 68.16 81.94" fill="#e87f18"></polygon><polygon points="32.38 111.92 68.61 91.01 88.35 102.21 51.77 123.38 32.38 111.92" fill="#ffb164"></polygon><polygon points="56.75 101.18 45.63 94.74 42.05 96.69 53.17 103.82 56.75 101.18" fill="#19847e"></polygon><polygon points="53.32 102.92 53.32 117.02 42.05 110.73 42.05 96.69 53.32 102.92" fill="#04aaa8"></polygon><polyline points="53.32 102.92 56.75 101.18 56.75 115.13 53.32 117.02" fill="#2252a4"></polyline><polygon points="32.32 81.77 68.55 60.86 88.29 72.06 51.71 93.23 32.32 81.77" fill="#ffb164"></polygon><polygon points="32.32 143.97 68.55 123.06 88.29 134.26 51.71 155.43 32.32 143.97" fill="#ffb164"></polygon><polygon points="51.71 93.23 32.32 81.77 32.38 176.43 51.77 187.89 51.71 93.23" fill="#ff9c28"></polygon><polygon points="85.18 120.19 75.4 114.52 72.25 116.23 82.03 122.5 85.18 120.19" fill="#19847e"></polygon><polygon points="82.17 121.72 82.17 134.12 72.25 128.58 72.25 116.23 82.17 121.72" fill="#04aaa8"></polygon><polyline points="82.17 121.72 85.18 120.19 85.18 132.46 82.17 134.12" fill="#2252a4"></polyline><polygon points="81.49 120.89 70.37 114.44 66.78 116.39 77.91 123.52 81.49 120.89" fill="#19847e"></polygon><polygon points="78.06 122.63 78.06 136.72 66.78 130.43 66.78 116.39 78.06 122.63" fill="#04aaa8"></polygon><polyline points="78.06 122.63 81.49 120.89 81.49 134.83 78.06 136.72" fill="#2252a4"></polyline><path d="M184.12,73s2.74-8.41,1.62-9.21-1.27,3.11-1.8,2.52-1.07-8.7-2.41-9.34-4.31,1.89-5.26,4,2.33,12.56,2.33,12.56S182.65,76.42,184.12,73Z" fill="#f9d7b4"></path><path d="M191,94.68c-2.4-1.88-5-14.38-6.35-22-3.13-.84-6.56-1-8.89,1.07,1.27,8.24,3.33,24.8,6.64,28.92,4.42,5.49,19.25,8.88,19.25,8.88l8.62-12.05S194.49,97.41,191,94.68Z" fill="#ffe14d"></path><path d="M205.78,236.46c3.35-2.43,2.67-5.34,2.67-5.34l11.15.93c.17,4.33.09,8.65.19,13l-4-.34L214.67,243c-3.43,0-6.24,2.42-10.26,3.07s-8.31-2.59-8-4.93S202.43,238.89,205.78,236.46Z" fill="#a04e2a"></path><path d="M218.35,240.3s-6.13,6.33-8.29,7.84-3.95,1.51-3.39,3.68,5,2.65,8,2.17,9.31-4.94,10.56-5.84v1.51l4.54-1.51s1-8.48-1.36-10" fill="#a04e2a"></path><path d="M218.59,145.37l-17.32-3.67c-.58-2-1.4,41.31-.17,55.53.49,5.62,3,29.41,4,37,4.43.42,10.8.57,13.23-.11C219.09,212.46,218.59,145.37,218.59,145.37Z" fill="#68e1fd"></path><path d="M209.13,147.41l19.22-4.35c2.4-.25,2.43,54.54,2.29,57.26,0,.37,0,.73,0,1.1a.46.46,0,0,0,.08.3c.45,18,.88,36.51-.41,37.87a10.05,10.05,0,0,1-11.58,1.84s-6.73-68.34-7.93-75.13A124.6,124.6,0,0,1,209.13,147.41Z" fill="#68e1fd"></path><path d="M230.68,201.72a.46.46,0,0,1-.08-.3c0-.37,0-.73,0-1.1.14-2.72.1-57.52-2.29-57.26l-9.75,3.71c0-.91,0-1.4,0-1.4l-17.32-3.67c-.58-2-1.4,41.31-.17,55.53.49,5.62,3,29.41,4,37a66.77,66.77,0,0,0,11.69.16q0,2.3,0,4.61a.5.5,0,0,0,1,0q0-2.38,0-4.76l.54-.12c0-1,.07-2.09.1-3.26.18,6.32.29,10.55.29,10.55a10.05,10.05,0,0,0,11.58-1.84C231.56,238.23,231.13,219.74,230.68,201.72Z" fill="#252726" opacity="0.17"></path><path d="M219.47,100.76s.53.21,1.37.6c2.7,1.26,8.55,4.39,9.55,8.33,1.31,5.15-2.16,34.42-2.16,34.42s-16.37,9.33-26.74-.31c0,0-3.3-28.92-2-35.6s6-8.93,10.75-8.65" fill="#ffe14d"></path><path d="M220.13,95.63l-.53,5.74s-2.4,3.9-7.79,2l.15-5.82" fill="#efc095"></path><path d="M206.84,78.27a5.71,5.71,0,0,1,5-.91,3.93,3.93,0,0,1,.48-.06c4.58-.13,9.8.78,11.76,5.52s-.92,9.61-4.1,12.89c-2.55,2.62-6.14-.08-6-3a5.12,5.12,0,0,1-3.09-4.4,5.74,5.74,0,0,1-4-.8,5.43,5.43,0,0,1-2.21-3A6,6,0,0,1,206.84,78.27Z" fill="#252726"></path><path d="M207.27,84.86s.38,5.57.25,7.74,1.4,6.94,3.61,8.35,8.3-4.51,9-5.32,1.63-4.84.13-5.1-2.78,3.06-2.78,3.06-1.91-1.6-1.56-3.7.51-4.49-1.67-4.85S209.68,87.4,207.27,84.86Z" fill="#f9d7b4"></path><path d="M248.79,77.28s-2.22-8.56-1-9.29,1.08,3.18,1.64,2.63,1.61-8.62,3-9.18,4.19,2.15,5,4.27-3.1,12.4-3.1,12.4S250.06,80.76,248.79,77.28Z" fill="#f9d7b4"></path><path d="M240.59,98.47c2.51-1.73,5.86-14,7.69-21.52,3.18-.65,6.61-.58,8.8,1.61-1.77,8.15-4.85,24.55-8.4,28.46-4.75,5.21-19.76,7.68-19.76,7.68l-9.46-13.94S237,101,240.59,98.47Z" fill="#ffe14d"></path><path d="M215.71,198.39c-1.12-13.34-3.69-26.93-2.56-40.33.05-.64-.95-.64-1,0-1.13,13.4,1.44,27,2.56,40.33,1.15,13.68,1.94,27.38,2.73,41.08,0,.64,1,.64,1,0C217.65,225.77,216.86,212.06,215.71,198.39Z" fill="#252726" opacity="0.17"></path><polygon points="121.07 45.33 123.92 54.2 130.64 58.89 125.49 62.3 126.61 70.66 120.66 63.73 114.55 64.38 115.88 56.95 111.12 48.72 117.89 51.06 121.07 45.33" fill="#ffad4a"></polygon><polyline points="124.22 72.34 126.61 70.66 122.78 59.5 121.07 45.33 118.69 47.01 116.41 52.07 111.12 48.72 108.74 50.4" fill="#ffad4a"></polyline><polygon points="118.69 47.01 121.54 55.88 128.26 60.57 123.25 63.71 124.22 72.34 118.28 65.41 112.16 66.07 113.5 58.63 108.74 50.4 115.51 52.74 118.69 47.01" fill="#ffe14d"></polygon><polygon points="163.37 20.77 166.22 29.64 172.94 34.32 167.79 37.74 168.9 46.1 162.96 39.16 156.84 39.82 158.17 32.38 153.42 24.16 160.19 26.5 163.37 20.77" fill="#ffad4a"></polygon><polyline points="166.52 47.78 168.9 46.1 165.07 34.94 163.37 20.77 160.98 22.45 158.7 27.5 153.42 24.16 151.03 25.84" fill="#ffad4a"></polyline><polygon points="160.98 22.45 163.84 31.32 170.56 36 165.55 39.15 166.52 47.78 160.57 40.84 154.46 41.5 155.79 34.07 151.03 25.84 157.81 28.18 160.98 22.45" fill="#ffe14d"></polygon><polygon points="336.05 66.96 340.27 80.09 350.22 87.03 342.59 92.09 344.24 104.47 335.44 94.2 326.38 95.17 328.36 84.16 321.31 71.98 331.34 75.44 336.05 66.96" fill="#ffad4a"></polygon><polyline points="340.71 106.96 344.24 104.47 338.57 87.94 336.05 66.96 332.52 69.45 329.14 76.93 321.31 71.98 317.79 74.47" fill="#ffad4a"></polyline><polygon points="332.52 69.45 336.74 82.58 346.69 89.52 339.27 94.17 340.71 106.96 331.91 96.69 322.86 97.66 324.83 86.66 317.79 74.47 327.81 77.94 332.52 69.45" fill="#ffe14d"></polygon><path d="M219.6,101.37c-.66,10.84-12.87,28-12.87,28s-1.55-9.62-1.24-16.3c.23-5.12,3.82-10.2,5.49-12.3a3,3,0,0,1-.61-.52c-1.52,2.14-5.14,7.74-5.6,13.12-.59,6.83,1.42,18.16,1.42,18.16,10.11-12,14.63-29.25,14.63-29.25Z" fill="#2252a4"></path><ellipse cx="206.59" cy="131.52" rx="2.85" ry="4.16" transform="translate(-17.57 32.88) rotate(-8.73)" fill="#68e1fd"></ellipse><polygon points="295.38 111.82 289.92 109.32 288.67 114.44 293.47 116.64 293.24 121.28 287.62 118.7 285.54 127.08 281.47 125.22 283.55 116.84 278.91 114.71 276.87 123.11 272.8 121.24 274.84 112.84 270.19 110.72 270.42 106.09 275.88 108.59 277.13 103.46 272.33 101.26 272.56 96.63 278.18 99.2 280.26 90.83 284.33 92.7 282.25 101.07 286.89 103.2 288.93 94.81 293 96.67 290.96 105.06 295.61 107.19 295.38 111.82" fill="#fff"></polygon><polygon points="284.71 112.58 280.43 110.48 281.61 105.35 285.89 107.45 284.71 112.58" fill="#68e1fd"></polygon><polygon points="312.06 105.4 310.43 138.47 305.29 136.13 306.52 111.36 300.88 112.64 301.19 106.22 309.82 104.37 312.06 105.4" fill="#fff"></polygon></g></g></svg>